<svg version="1.0" viewBox="0 0 666 860" xmlns="http://www.w3.org/2000/svg">
<path fill="currentColor" d="M308 0h3-3zm8 2c-5 0-10 5-17 17-11 18-13 29-13 67 0 48-3 58-29 84-21 22-27 30-36 50-7 13-8 16-12 19-6 4-9 5-12 2l-2-3 5-12c9-20 11-31 10-48-2-29-20-53-50-65-9-4-14-4-15 0-1 3-1 4 2 6 16 12 23 27 22 44-2 16-10 30-32 56-10 11-21 28-25 37a98 98 0 0 0 3 85c4 9 5 10 3 12-3 2-8 0-18-4-10-5-17-12-21-21-7-14-7-25-1-48 6-26 6-38 0-50-3-6-8-11-12-13-3-1-3-1-5 1s-2 4 0 8c4 6 5 11 5 18 0 12-4 22-15 39-9 13-14 27-16 42-1 11-1 18 3 29 3 10 5 14 19 35 11 17 15 25 18 36s3 18 2 24-7 12-10 13c-5 2-11-1-15-5-6-6-7-10-7-22 0-22-4-35-15-46-6-6-13-10-20-11-8-2-9 4-3 12 9 10 11 23 7 43-4 21-2 36 6 52 5 11 9 16 21 28a127 127 0 0 1 27 38c0 3-7 4-13 3-12-1-19-8-23-21-4-9-6-13-9-13-5 0-6 2-5 14 0 14 3 23 10 34 11 16 23 25 44 33 18 7 25 12 33 22 5 8 9 15 10 21 0 7-2 9-10 9-11 0-20-8-24-20-3-11-10-16-14-9-2 4-2 17 1 28 6 18 23 36 42 46 11 5 32 11 42 11 5 0 5 0 6-3l1-3-7-8c-7-7-12-14-15-22l-1-178 1-177c1-8 6-17 12-23 7-6 14-10 25-14a6870 6870 0 0 1 269-79c12 0 17 7 14 19l-1 6v3h5c9 0 12 1 14 5l4 3 1 5 1 6 7-1c7 0 8 0 10 2l2 4 3 1c5 0 6 2 7 10v6h5l11-2h5v367c0 6-3 10-9 13l-40 13-23 6a1146 1146 0 0 1-80 22l-62 18a334 334 0 0 1-95 18v18l6 1c7 0 12 1 21 6 12 5 21 11 32 21 11 11 17 20 27 40l8 16c1 0 4-3 4-5l1-17c0-20 2-32 7-44 11-27 24-42 44-50l18-5 3 6c0 6-5 10-19 15-6 3-17 13-23 22a112 112 0 0 0-7 103c2 3 5 4 9 2 2-2 2-2 2-14 0-18 3-31 12-46 11-19 29-41 45-52 20-15 51-26 86-30l24-3c36-9 58-26 72-56 6-11 7-30 3-33h-5c-4 1-5 2-7 9-3 10-5 13-10 17-5 5-9 7-15 7-8 0-10-2-10-10 0-6 5-16 11-23 6-8 20-16 35-21 17-7 28-16 40-34 8-12 10-20 10-33 1-10 0-13-4-13s-8 4-10 10c-4 18-21 29-33 23-7-4-7-8 4-21l10-13 13-12c14-13 21-25 25-40 2-10 1-23-2-37-4-18-1-29 10-41 6-6 7-8 4-10-2-3-7-2-15 3-11 5-17 10-22 20s-7 18-7 33c-1 11-3 17-8 22-4 5-8 6-13 6-4 0-6 0-7-2-2-2-2-4-2-17 1-12 1-16 3-21 5-14 10-23 26-44 8-11 12-19 15-30 2-7 2-10 2-21-1-19-4-27-16-46-14-20-16-25-16-34 0-7 3-18 7-24 3-4 3-5 3-7-5-10-23 8-25 25-2 10-1 23 2 35 5 17 5 22 5 32-1 15-6 23-21 35-9 7-18 11-26 11-7 0-6-1 1-12 17-27 19-60 4-89-4-9-8-14-19-26-20-24-25-34-28-49-1-9-2-10-4-10-3 0-8 4-9 8l-1 13c0 11-1 18-4 19-4 3-12-3-15-11-2-7-3-25-1-37l3-22c0-10 0-13-2-21-7-25-21-43-42-53-11-5-16-6-26-8-8 0-12 0-13 3-2 4 0 6 7 8s13 7 18 13c8 10 11 19 10 33-1 16-8 28-30 50a240 240 0 0 0-35 42c-2 1-10-2-10-4l4-8c7-12 9-20 10-36 0-12 0-15-2-22-4-17-12-30-35-56-8-10-15-22-17-30-2-7-2-22 0-29l6-10c4-6 4-7 1-8l-3-1zm-88 49c-5-1-10 5-15 15-3 6-3 7-3 16 0 8 0 9 3 15s5 9 18 20c8 6 10 15 7 25-2 4-2 5 0 6 4 3 8 2 10-1 5-6 7-13 7-20 0-14-3-21-16-31-10-9-13-13-12-23l3-12c3-5 3-6 1-8l-3-2zm283 28-6 2c-5 4-8 11-8 18 0 4 0 7 4 15 5 11 5 15 1 25-4 11-5 14-2 15 4 3 7 2 12-3 13-12 14-29 4-44-6-10-7-14-3-26l-2-2zm-137 0-4 2c-2 2-3 7 0 9 2 2 7 3 10 0l2-3-3-7-5-1zm16 25-3 2c-5 4-3 11 3 14 3 2 5 2 8-1 2-2 3-7 2-9-2-4-7-7-10-6zm-72 27c2 0 4 2 9 6 11 9 14 26 8 40-4 6-7 9-19 15-14 6-20 13-25 25-2 7-4 8-8 4l-1-11c0-14 4-20 18-28 12-6 20-14 22-20s1-11-4-19c-3-7-4-9-2-11l2-1zm-193 27c-4 1-7 3-7 8 0 6 10 10 15 5 2-3 2-8-1-11l-7-2zm413 18c-3 0-4 1-5 2-3 4-2 10 1 12 4 2 5 1 8-2 6-7 4-12-4-12zm-425 13c-3 0-6 3-6 7 0 5 7 8 11 5 3-2 3-7 1-10-2-2-4-2-6-2zm443 9c-2 0-4 2-4 5 0 4 5 5 8 1 2-2 1-4-1-5l-3-1zm-116 18a17975 17975 0 0 0-108 33l-22 7-28 8c-70 21-107 33-113 36-8 4-11 7-15 14-2 5-2 6-3 27v22l5 6c9 11 20 18 38 24 9 4 24 6 34 7h4v-12l-1-15v-4l-11-1c-22-3-37-7-49-16-4-3-16-18-16-19l8 1 7 2-1-4c-2-6-1-9 4-14s10-7 32-13a993 993 0 0 0 55-18l30-9a815 815 0 0 1 75-22 436 436 0 0 0 45-14l20-6c7-1 8-1 10-8 2-11 3-12 0-12zm0 21-23 6a573 573 0 0 1-77 24l-41 12a2322 2322 0 0 0-110 37c0 2 0 2 4 2a137 137 0 0 0 18-6c2-2 16-7 23-8l12-3 14-4 14-4a595 595 0 0 1 68-20l24-7 51-15c20-7 26-10 25-13l-2-1zm17 7-20 6a906 906 0 0 1-101 31 991 991 0 0 1-65 19l-33 9c-20 6-44 14-45 16v4l18-5a830 830 0 0 1 47-13 2312 2312 0 0 1 118-35 1678 1678 0 0 0 82-28l-1-4zm10 8-2 2-26 10-15 5-23 7a7106 7106 0 0 0-129 38 975 975 0 0 0-63 23c-1 2 2 1 23-5l29-9a305 305 0 0 1 55-16 2187 2187 0 0 1 78-23l28-8 25-7 17-6c3 0 6-2 7-3l-4-8zm15 10-4 2c-8 4-51 18-74 25a2888 2888 0 0 0-129 38c-10 2-52 15-57 18-9 4-9 6 1 8l6 2c1 1 14 0 22-2l20-5 26-8a1234 1234 0 0 0 63-18 3512 3512 0 0 0 140-42c3-1 3-4 0-7l-2-2-3 2-11 5-22 7a2855 2855 0 0 1-162 48 937 937 0 0 0-72 20l-2-1a1039 1039 0 0 1 136-44l10-3 16-4a2554 2554 0 0 1 97-29c7-2 7-4 4-8l-3-2zm34 26-7 3-33 10a1284 1284 0 0 1-81 23l-81 24-31 9a1659 1659 0 0 1-37 12l-1 160c0 187 0 180 1 180a830 830 0 0 0 96-24l27-7a6173 6173 0 0 0 137-39l12-3v-34a29064 29064 0 0 0-2-314zm-13 19v18l-1 18-7-2c-10-3-16-6-19-12-3-5-5-12-4-13l28-9h3zm-47 13 1 2 4 10c8 15 19 23 35 24h8v113l-1 112-10 4c-11 6-22 17-28 30l-7 17-2 7-4 2-22 6-29 8a4961 4961 0 0 1-89 24c-1 0-3-2-6-9-9-17-19-24-38-26h-7v-9a6265 6265 0 0 1 1-214c7-2 15-7 23-14 13-13 21-26 23-39 1-5 2-7 4-7a465 465 0 0 0 49-14l48-14 37-10a249 249 0 0 0 10-3zm-47 38-3 3c-4 4-3 11 1 11l3-1c4-2 5-4 5-8 0-2 0-3-3-4l-3-1zm-22 5c-5 0-9 7-5 12 3 4 5 4 7 1l3-6-1-6-4-1zm-94 5c1 0-2 9-6 17-4 7-13 16-19 19-5 3-7 3-7 0l1-14v-14l4-1 27-7zm73 1c-2 0-3 1-5 3-3 3-3 8 0 9 3 3 5 2 7 0s3-8 0-10l-2-2zm119 6-18 5-25 8-9 2v3c0 3 1 4 4 4l5 2c5 3 5 3 5 40v34l-21 5-23 6-1-32v-33l3-5c3-5 6-7 11-10 3-2 4-3 4-5l-1-4-5 1-42 12c-7 2-8 6-1 9l7 4c2 2 2 4 2 77l-1 79c-1 4-8 12-14 16-2 1-3 3-2 4 0 4 2 4 13 0 10-3 20-6 33-8l8-2v-3c0-3-1-3-3-4-5-1-8-3-10-6s-2-6-2-38v-35l12-3a1112 1112 0 0 0 33-9v72l-3 4-7 7c-4 2-4 3-3 5v4l15-4 24-6c12-3 13-3 13-7 0-2-1-3-4-3-5-2-6-3-9-7l-2-3V398l2-4 8-8 5-4c1-1 0-6-1-7zm-333 7-1 24v24l7 7 12 10c13 9 37 16 55 16h7v-51h-10a112 112 0 0 1-70-30zm514 4v2-2zm-82 9c4 0 1 10-6 22-7 9-9 17-9 29 0 8 0 9-2 10h-12c-4-2-5-6-5-17-1-9 0-10 3-16 2-4 5-9 10-14 7-6 18-14 21-14zM82 405l1 1c4 1 13 11 17 19 5 9 7 17 8 29 1 16-4 30-14 42-9 10-11 16-12 28-1 16 5 30 21 45l11 12c1 2 1 2-2 3-4 2-4 2-11 0-10-4-25-23-31-38-2-6-3-25-1-32 2-8 8-22 15-34l7-15a74 74 0 0 0-6-42l-4-13 1-5zm276 5-6 3a461 461 0 0 1-69 20l-1 4c0 1 1 2 5 3 3 0 5 1 8 4l3 3v41c0 93 0 110-2 115-2 4-5 8-11 12-2 2-3 3-2 5 0 2 0 2 14-2l22-5 14-4c2 0 2-1 2-4 0-2 0-3-2-3s-9-4-11-8c-2-2-2-4-2-37v-35l7-2 8-2c2 0 8 6 12 12l4 6 3-1 3-1v-31l-1-31c-3 0-7 6-12 15l-7 12c-2 2-16 7-17 7v-66l10-3 10-2 3 2c4 2 8 7 9 10 1 2 2 2 4 2h3v-20l-1-19zm-186 4 4 2c4 2 4 3 3 7 0 3-1 3-2 3h-1l-3 5-2-2-1-12c0-2 0-3 2-3zm27 10c2 0 4 2 5 5 0 2 1 3 2 3 2-1 0 4-2 6l-3 3c-2 1-2 1-3-1-3-3-3-15 0-16h1zm-46 25c-2 0-2 11-2 56l1 63c0 7 0 7 7 14 5 5 9 8 16 11 15 7 35 13 49 13h7V476h-7c-24 0-57-12-68-25l-3-2zm-1 144v28l1 5 8 6c4 4 9 8 14 10 16 8 38 13 51 12h5v-32l-10-2c-19-2-42-9-53-16l-11-8-5-3zm351 3 1 2-1 15v13l-4 1-13 3-11 3-2-1c0-3 5-15 7-19 4-5 9-9 15-13l8-4zm-96 24-3 1c-4 3-2 13 3 12l3-4c2-3 2-5 1-6-1-2-2-3-4-3zm-20 4c-5 0-8 8-4 12 2 3 5 3 7 0 4-4 2-12-3-12zm-23 6c-2 0-6 5-6 7 0 5 6 8 9 4 3-3 3-7 1-9l-4-2zm-211 14c-2 0-2 4-2 14 1 16 1 18 7 24l4 3 1-5 4-7 2-2 9 4c9 4 22 8 28 8s7 2 8 16l1 13h4l8 1h4v-8l1-22v-14h-7c-14 0-41-6-52-12-3-1-9-4-12-7l-8-6zm108 12h4c13 2 19 7 27 19l4 7-21 6-12 4c-2 0-2-1-2-18v-18zm-85 25c-2 0-3 0-3 2l-1 14a582 582 0 0 1-2 67c1 0 12-8 14-11l3-2 5 6 16 16v-4a1379 1379 0 0 1-4-77l-8-2-13-5-7-4zm284 70-9 1c-9 3-16 7-22 13-7 6-8 10-4 14 3 3 4 2 13-3 7-4 11-5 28-8 8-2 12-5 12-8 0-5-8-9-18-9z" />
</svg>
